<svg id="Capa_1" data-name="Capa 1" xmlns="http://www.w3.org/2000/svg" viewBox="0 0 267.54 310.01"><defs><style>.cls-1{fill:#fff;}.cls-2{fill:none;stroke:#090500;stroke-miterlimit:10;}</style></defs><path class="cls-1" d="M436.11,517.37l.18,0,.27,0A1.15,1.15,0,0,0,436.11,517.37Zm0,0,.18,0,.27,0A1.15,1.15,0,0,0,436.11,517.37ZM329.71,208.76l-5.19,0-3.1,2.87c-1.33,1.21-2.6,2.48-3.84,3.78-17.06,17.92-26.35,43.52-31.32,61.33-.59,2.14-1.13,4.17-1.61,6.05-.39,1.4-.77,2.8-1.11,4.2a74.33,74.33,0,0,0,4.65,8c.22-1.11.45-2.24.68-3.38.44-1.84.9-3.65,1.36-5.41,9.94-38.19,23-57.59,35.24-70.5,2.39-2.5,4.74-4.75,7-6.84C331.59,208.85,330.67,208.82,329.71,208.76Z" transform="translate(-270.87 -207.4)"/><path class="cls-1" d="M532.28,212.86c1.78-.2,3.68,0,5.27-.84a1.56,1.56,0,0,0,0-2.79,5.34,5.34,0,0,0-1.5-.39,58.06,58.06,0,0,0-6.43-.74c-7.69-.3-15.39-.7-23.09-.7-15.27,0-30.54.18-45.8.4-10.27.15-20.53.47-30.79.78s-20.25.67-30.38,1a17.68,17.68,0,0,0-2.82.23c-.45.09-.83.52-1.89,1.23l8.66,1c-.32,1-.53,1.52-.62,2-2,11.48-3.27,22.95-2.18,34.67a105.19,105.19,0,0,0,7.2,29.79,95.39,95.39,0,0,0,16.48,26.81,52.14,52.14,0,0,0,36.23,18.42c9.59.81,18.8-1.65,27.24-6.37A65.3,65.3,0,0,0,510.69,296c10.39-15.73,15.41-33.2,16.58-51.89a105.32,105.32,0,0,0-1.92-26.21c-.27-1.39-.85-2.88.09-4.43C527.73,213.29,530,213.1,532.28,212.86Zm-15.11,52.9c-3.06,11.37-7.78,21.91-15.13,31.08s-16.48,16.25-28.29,19.22c-11,2.76-21.33,1-31.27-4.26-7.87-4.14-13.71-10.38-18.78-17.5a95.19,95.19,0,0,1-16.81-40.84,89.07,89.07,0,0,1-.56-25.05q.84-6.63,1.85-13.23a17.44,17.44,0,0,1,1.09-3.12c36.49,1.89,72.8,1.84,109.46,1.61.27,1.24.58,2.36.78,3.51A110.31,110.31,0,0,1,517.17,265.76Z" transform="translate(-270.87 -207.4)"/><path class="cls-1" d="M350.74,347.17a2,2,0,0,1,.32-1.22h0a2.57,2.57,0,0,1,1.78-1.36c4.72-.91,17.91,2.13,24.92,5.91-.18,1.32-1.12,1.27-2.07,1.11-5.42-.91-10.84-1.84-16.27-2.74-1.29-.22-2.6-.39-3.92-.57a1.81,1.81,0,0,0-1.87,1l-.51,1.08a.35.35,0,0,1-.6,0C351.75,349.19,350.89,348.31,350.74,347.17Z" transform="translate(-270.87 -207.4)"/><path class="cls-1" d="M365,233.27c-2.56-2-8.48-2.57-11.44-.41A18.81,18.81,0,0,0,345.94,246a12.47,12.47,0,0,0-.09,2.2c.25,5.43,1.5,10,4.63,13.93,5.15,6.55,13.46,4,16.84-.22a21.55,21.55,0,0,0,3.08-5.21C374,248,371.92,238.69,365,233.27Zm.51,27.77,0,0a8.87,8.87,0,0,1-14.09-.66,12.12,12.12,0,0,1-1.24-2.3c-2.79-6.7-2.78-13,1.64-19.15,3.52-4.87,9.91-4.65,13-.2a20.07,20.07,0,0,1,3.23,6.86C369.2,251,369.21,256.4,365.51,261Z" transform="translate(-270.87 -207.4)"/><path class="cls-1" d="M450.11,236.54c-4.81-6.7-13.3-7.64-19.35-2.09-4.56,4.17-6.3,9.56-6.29,16.38a20.83,20.83,0,0,0,1.81,9.13c2,5,5.21,9,10.91,9.74,6.14.83,10.76-2,13.81-7.15C455.41,255.05,455.88,244.61,450.11,236.54Zm.63,18.38c-.67,3.65-1.5,7.11-3.95,10-4.43,5.29-11.35,5.09-15.51-.49a20.51,20.51,0,0,1-3.78-13.1,17,17,0,0,1,4.42-12.58c4.79-5.47,10.26-5.43,14.46-.17A19.85,19.85,0,0,1,450.74,254.92Z" transform="translate(-270.87 -207.4)"/><path class="cls-1" d="M385.57,209.75a13.62,13.62,0,0,0-5.12-.86l-44.21-.07c-1.23,0-2.46,0-3.73,0-.92,0-1.84,0-2.8-.09l-5.19,0c-14.83.13-56.24.69-53.53,2.66,3.3,2.4,6.27.75,10,1.79a121.78,121.78,0,0,0-6.37,34.95c-.25,12,2.75,23.24,7,34.74.14.39.4,1,.74,1.71s.76,1.6,1.15,2.38a74.33,74.33,0,0,0,4.65,8c.75,1.13,1.53,2.23,2.35,3.31a.1.1,0,0,1,0,0c5.61,7.44,12.16,13.78,20.67,17.85,9,4.32,18.34,4.95,28,2.52,8.28-2.08,15-6.7,20.78-12.73a78.54,78.54,0,0,0,21.84-44.71A106.6,106.6,0,0,0,380.78,225c-.5-2.51-1.4-5-2.06-7.43a24.62,24.62,0,0,1-.41-2.68c2.68-.49,5.18,0,7.5-1.18a2.23,2.23,0,0,0-.24-4Zm-7.95,39.91c-.64,10.84-2.35,21.55-7.24,31.39-6,12-13.45,22.88-25.57,29.55a32.93,32.93,0,0,1-20.73,3.66c-8.44-1.12-15.11-5.43-21.23-10.93-4.14-3.73-9.4-11.13-12.62-17.14-.6-1.12-1.13-2.19-1.57-3.18-.56-1.28-1.56-3.95-2.4-6.23s-1.45-4-1.45-4c-7.46-19.68-5.42-39,.59-58.51,7.32.25,23.47.85,32.18,1.17l5.86.22,2,0c16.12.22,31.66.42,47.47.61.56,1.49,1.24,2.95,1.65,4.47A90.58,90.58,0,0,1,377.62,249.66Z" transform="translate(-270.87 -207.4)"/><path class="cls-2" d="M361.05,422.91" transform="translate(-270.87 -207.4)"/></svg>